<svg width="34" height="34" viewBox="0 0 34 34" fill="none" xmlns="http://www.w3.org/2000/svg">
<style>
	svg {
		cursor: pointer;
		transition: all 0.3s;
	}

	svg:hover rect {
		fill: url(#paint0_linear);
	}

	svg:hover path {
		fill: url(#paint0_linear);
	}
</style>
<g opacity="0.3" clip-path="url(#clip0)">
<path d="M0.125923 16.5975C0.393681 16.2079 6.82828 7.08301 17.0001 7.08301C25.7283 7.08301 33.5059 16.1555 33.8332 16.5423C34.0556 16.8058 34.0556 17.1925 33.8332 17.4574C33.5059 17.8442 25.7283 26.9167 17.0001 26.9167C8.27184 26.9167 0.494286 17.8442 0.16703 17.4574C-0.0384331 17.2138 -0.0568275 16.861 0.125923 16.5975ZM17.0001 25.5C23.9971 25.5 30.6499 18.8274 32.34 16.9999C30.6527 15.1709 24.007 8.49974 17.0001 8.49974C8.81306 8.49974 3.03436 15.1624 1.62334 16.9616C3.25258 18.731 9.94358 25.5 17.0001 25.5Z" fill="black"/>
<path d="M17.0003 11.333C20.1255 11.333 22.667 13.8745 22.667 16.9997C22.667 20.1249 20.1255 22.6665 17.0003 22.6665C13.8751 22.6665 11.3335 20.1249 11.3335 16.9997C11.3335 13.8745 13.8751 11.333 17.0003 11.333ZM17.0003 21.2499C19.3434 21.2499 21.2503 19.343 21.2503 16.9998C21.2503 14.6566 19.3434 12.7497 17.0003 12.7497C14.6571 12.7497 12.7502 14.6566 12.7502 16.9998C12.7502 19.343 14.6571 21.2499 17.0003 21.2499Z" fill="black"/>
</g>
<defs>
<clipPath id="clip0">
<rect width="34" height="34" fill="white" transform="matrix(-1 0 0 1 34 0)"/>
</clipPath>
</defs>
<linearGradient id="paint0_linear" x1="13.904" y1="39.9829" x2="13.9985" y2="42.3389" gradientUnits="userSpaceOnUse">
<stop stop-color="#0032C3"/>
<stop offset="0.4188" stop-color="#0077BA"/>
<stop offset="0.8123" stop-color="#00B1B2"/>
<stop offset="1" stop-color="#00C8AF"/>
</linearGradient>
</svg>
