<svg width="274" height="262" viewBox="0 0 274 262" fill="none" xmlns="http://www.w3.org/2000/svg">
<style>
    svg {
        animation: rotate 10s linear infinite;
        overflow: hidden;
        pointer-events: none;
    }

    @keyframes rotate {
    to {
        transform: rotate(360deg);
    }
</style>
<path d="M261.486 137.987L249.137 140.805L243.334 141.941L248.572 144.543L259.54 150.848L258.275 159.207L256.546 158.946L256.564 154.755L238.202 154.936L237.394 158.103L235.665 157.841L237.125 148.196L238.853 148.457L238.688 151.721L250.5 151.905L257.466 152.055L251.061 148.742L239.396 141.88L239.652 140.192L252.83 137.047L259.752 135.587L253.23 133.86L241.859 130.495L241.055 133.909L239.327 133.647L240.695 124.605L242.423 124.866L242.264 128.09L259.775 133.535L260.968 129.728L262.696 129.989L261.486 137.987Z" fill="white" stroke="white"/>
<path d="M224.514 155.925C224.663 155.576 224.842 155.225 225.052 154.873C225.251 154.545 225.419 154.323 225.558 154.205L228.324 155.387C228.047 155.622 227.7 156.226 227.285 157.198C226.955 157.97 226.819 158.737 226.876 159.498C226.898 160.274 227.239 161.2 227.898 162.278C228.558 163.355 229.659 164.607 231.201 166.032L231.904 164.387L253.68 165.251L254.917 163.702L256.449 164.357L252.919 172.617L251.387 171.962L252.232 168.743L239.117 167.78L232.194 167.12L237.526 171.608L247.424 179.994L248.991 177.569L250.523 178.224L247.456 185.4L245.924 184.745L246.306 182.61C241.373 178.292 237.522 174.892 234.751 172.412C231.995 169.966 230.319 168.44 229.724 167.832C227.904 166.023 226.552 164.532 225.669 163.358C224.76 162.174 224.191 160.988 223.962 159.8C223.734 158.612 223.917 157.32 224.514 155.925Z" fill="white" stroke="white"/>
<path d="M244.338 189.219C243.848 189.935 243.36 190.914 242.872 192.156C242.22 193.877 241.413 195.442 240.449 196.851C238.997 198.977 237.481 200.353 235.903 200.981C234.325 201.609 232.82 201.434 231.388 200.455C230.449 199.813 229.817 198.84 229.494 197.536C229.194 196.247 229.266 194.869 229.712 193.401C228.529 194.89 227.211 195.81 225.756 196.162C224.324 196.528 222.981 196.284 221.728 195.427C219.894 194.173 218.925 192.493 218.822 190.388C218.726 188.32 219.565 185.988 221.339 183.393C222.348 181.917 223.389 180.659 224.46 179.619C225.532 178.579 226.496 177.794 227.351 177.262L230.903 180.134L229.779 181.778L227.143 180.665C226.578 180.771 225.931 181.165 225.201 181.848C224.494 182.547 223.842 183.332 223.246 184.205C222.038 185.972 221.46 187.513 221.512 188.829C221.564 190.145 222.183 191.208 223.369 192.019C224.599 192.86 225.799 193.122 226.968 192.805C228.136 192.488 229.295 191.442 230.443 189.666C230.558 189.449 230.746 189.102 231.007 188.624C231.268 188.146 231.445 187.791 231.538 187.559L233.384 188.821L232.588 190.345C231.751 191.906 231.389 193.3 231.502 194.526C231.623 195.79 232.175 196.759 233.16 197.432C234.144 198.105 235.115 198.293 236.073 197.996C237.031 197.699 238.03 196.79 239.07 195.268C239.773 194.239 240.273 193.268 240.569 192.354C240.888 191.456 241.047 190.744 241.045 190.218L238.325 187.571L239.472 185.893L244.338 189.219Z" fill="white" stroke="white"/>
<path d="M217.438 209.505C213.228 213.252 209.619 213.436 206.61 210.055C205.061 208.314 204.439 206.474 204.743 204.534C205.046 202.632 206.21 200.78 208.234 198.979C208.699 198.565 209.674 197.806 211.159 196.702C212.261 195.903 213.075 195.269 213.602 194.8L217.002 191.774L218.11 193.018L215.526 195.862L227.579 209.404L230.598 207.478L231.787 208.814L223.559 216.138L222.289 214.711L225.18 211.539L220.748 206.56L217.438 209.505ZM209.076 229.027L207.887 227.691L209.755 225.267L197.73 211.755L195.088 213.617L193.926 212.311L201.001 206.015L202.163 207.32L200.159 209.593L212.184 223.105L214.961 221.395L216.15 222.731L209.076 229.027ZM213.02 197.876C211.904 198.578 210.81 199.407 209.737 200.362C207.085 202.722 206.84 205.117 209.002 207.546C210.191 208.882 211.393 209.499 212.608 209.397C213.821 209.333 215.166 208.643 216.644 207.328L219.316 204.95L213.02 197.876Z" fill="white" stroke="white"/>
<path d="M187.308 228.838C186.278 228.845 185.161 228.593 183.958 228.08C182.767 227.592 181.271 226.863 179.47 225.895C178.096 225.165 177.068 224.64 176.387 224.317C175.694 224.031 175.142 223.932 174.731 224.02L173.206 224.34L172.413 222.782L175.311 221.307C175.963 220.975 176.812 221.03 177.857 221.471C178.915 221.936 180.356 222.707 182.182 223.785C184.056 224.898 185.553 225.688 186.671 226.152C187.765 226.629 188.662 226.689 189.363 226.333L192.26 224.858L188.278 217.033L184.798 218.44L184.005 216.882L193.025 212.291L193.818 213.849L191.067 215.614L199.29 231.77L202.393 230.875L203.185 232.433L194.419 236.895L193.626 235.337L196.501 233.189L193.035 226.379L189.268 228.297L187.409 237.817L190.511 236.923L191.304 238.48L183.443 242.481L182.65 240.924L184.946 239.071L187.308 228.838Z" fill="white" stroke="white"/>
<path d="M174.349 228.001C175.037 230.538 174.277 232.709 172.071 234.514C169.872 236.346 166.913 237.807 163.195 238.899L163.524 240.116C163.886 241.449 164.313 242.457 164.806 243.137C165.28 243.851 165.904 244.286 166.676 244.441C167.455 244.623 168.459 244.548 169.689 244.214C171.022 243.853 172.182 243.314 173.167 242.598C174.133 241.915 175.048 241.148 175.912 240.296L177.243 241.788C177.026 242.128 176.524 242.657 175.736 243.376C174.948 244.095 174.015 244.797 172.938 245.482C171.86 246.167 170.772 246.658 169.673 246.956C167.895 247.438 166.428 247.569 165.274 247.348C164.093 247.135 163.131 246.539 162.389 245.561C161.62 244.59 160.985 243.176 160.481 241.319L156.973 228.373L154.541 229.032L154.147 227.58C155.479 226.798 156.642 226.272 157.636 226.003C158.264 225.833 158.724 225.821 159.016 225.966C159.301 226.085 159.539 226.498 159.731 227.204L160.124 228.656C160.839 227.564 161.67 226.538 162.617 225.58C163.546 224.654 164.716 224 166.128 223.617C168.011 223.107 169.722 223.205 171.261 223.911C172.774 224.624 173.803 225.988 174.349 228.001ZM165.579 226.251C164.846 226.45 164.034 226.922 163.141 227.67C162.249 228.417 161.473 229.231 160.813 230.111L162.695 237.055C165.853 236.172 168.131 235.049 169.531 233.687C170.904 232.332 171.382 230.883 170.964 229.34C170.56 227.849 169.886 226.866 168.944 226.392C168.008 225.944 166.886 225.897 165.579 226.251Z" fill="white" stroke="white"/>
<path d="M116.473 219.081L118.652 219.343L118.538 220.639C118.475 221.614 118.398 222.71 118.307 223.927C118.215 225.144 118.161 226.052 118.144 226.651L133.762 228.525C133.953 227.839 134.291 226.733 134.774 225.208C135.261 223.656 135.671 222.396 136.006 221.426L138.266 221.697L136.788 230.936L134.488 230.66C133.055 231.006 131.771 232.721 130.636 235.806C129.498 238.917 128.621 243.042 128.004 248.181L131.644 249.232L131.436 250.967L111.782 248.608L111.991 246.872L115.695 246.703L117.861 228.664L114.31 228.237L116.473 219.081ZM126.332 245.401C126.613 243.06 127.044 240.833 127.625 238.719C128.176 236.629 128.786 234.847 129.455 233.371C130.096 231.893 130.698 230.86 131.26 230.272L121.049 229.046L118.859 247.288L126.003 248.145L126.332 245.401Z" fill="white" stroke="white"/>
<path d="M96.5392 243.989L97.1471 242.351L100.637 242.995L105.669 229.428L102.095 231.7L89.0587 238.093L88.8608 238.627L91.6212 240.301L91.0134 241.94L82.1339 238.646L82.7418 237.007L85.812 237.496L92.1169 220.499L89.2575 219.091L89.8653 217.453L99.0497 220.86L98.4418 222.498L95.1657 221.63L90.0624 235.387L94.1394 232.694L106.687 226.684L106.941 225.998L104.539 224.76L105.147 223.121L113.684 226.288L113.076 227.927L109.952 227.115L103.647 244.112L106.37 245.772L105.762 247.41L96.5392 243.989Z" fill="white" stroke="white"/>
<path d="M76.6109 234.659C75.8845 234.185 74.8951 233.718 73.6427 233.258C71.9076 232.644 70.325 231.872 68.8949 230.939C66.7383 229.534 65.3287 228.049 64.6662 226.485C64.0036 224.921 64.1459 223.412 65.0929 221.959C65.7144 221.006 66.6734 220.353 67.9701 220.002C69.2519 219.673 70.6315 219.715 72.1089 220.128C70.5939 218.979 69.6447 217.681 69.2615 216.234C68.8634 214.81 69.0787 213.463 69.9074 212.191C71.1208 210.33 72.7789 209.324 74.8819 209.175C76.9473 209.033 79.2967 209.821 81.93 211.537C83.4282 212.514 84.7089 213.527 85.772 214.575C86.8351 215.624 87.6416 216.57 88.1914 217.414L85.399 221.028L83.7305 219.94L84.7853 217.28C84.6668 216.718 84.258 216.079 83.5592 215.365C82.8455 214.673 82.046 214.039 81.1607 213.462C79.3673 212.293 77.8134 211.749 76.4989 211.83C75.1845 211.911 74.1351 212.554 73.3509 213.757C72.537 215.005 72.3014 216.21 72.6442 217.372C72.9869 218.533 74.0584 219.668 75.8586 220.777C76.0777 220.888 76.4291 221.068 76.9127 221.319C77.3963 221.569 77.7551 221.738 77.989 221.826L76.7682 223.699L75.2271 222.937C73.6479 222.134 72.2465 221.803 71.0229 221.943C69.7617 222.092 68.8056 222.665 68.1545 223.664C67.5034 224.663 67.3369 225.638 67.6549 226.589C67.9729 227.54 68.9037 228.519 70.4474 229.525C71.4916 230.206 72.4736 230.684 73.3934 230.96C74.2984 231.259 75.0139 231.402 75.5399 231.389L78.1268 228.612L79.8293 229.721L76.6109 234.659Z" fill="white" stroke="white"/>
<path d="M68.8776 210.233C67.053 212.125 64.8 212.588 62.1186 211.621C59.4184 210.673 56.6454 208.884 53.7996 206.253L52.925 207.16C51.9657 208.155 51.3206 209.038 50.9896 209.811C50.6204 210.584 50.5671 211.342 50.8297 212.085C51.0735 212.847 51.6538 213.67 52.5706 214.554C53.5654 215.513 54.6229 216.232 55.7431 216.71C56.825 217.188 57.9533 217.58 59.1278 217.884L58.5301 219.793C58.1274 219.781 57.4154 219.621 56.3941 219.314C55.3728 219.007 54.2916 218.566 53.1505 217.993C52.0094 217.42 51.0292 216.738 50.21 215.948C48.8836 214.669 48.0187 213.477 47.6154 212.373C47.1925 211.25 47.2103 210.119 47.6687 208.98C48.1076 207.822 48.9948 206.551 50.3303 205.166L59.6412 195.51L57.8271 193.761L58.8711 192.678C60.2261 193.42 61.2742 194.149 62.0154 194.864C62.4835 195.315 62.7301 195.703 62.7552 196.029C62.7991 196.335 62.5671 196.751 62.0593 197.277L61.0153 198.36C62.3194 198.413 63.626 198.6 64.935 198.921C66.2057 199.243 67.3677 199.912 68.421 200.928C69.8255 202.282 70.6196 203.801 70.8035 205.484C70.9679 207.148 70.3259 208.731 68.8776 210.233ZM65.8786 201.807C65.3324 201.281 64.5097 200.826 63.4104 200.444C62.3111 200.061 61.2142 199.813 60.1197 199.699L55.1257 204.877C57.5048 207.134 59.6379 208.513 61.5251 209.016C63.3928 209.499 64.8816 209.166 65.9914 208.015C67.0635 206.903 67.5613 205.821 67.4847 204.768C67.3892 203.735 66.8539 202.748 65.8786 201.807Z" fill="white" stroke="white"/>
<path d="M34.41 196.602L35.8742 195.647L38.2939 198.243L50.4162 190.341L46.1916 190.038L31.912 187.41L31.4353 187.721L32.6558 190.71L31.1916 191.664L26.0199 183.73L27.4842 182.776L29.6596 184.997L44.8466 175.097L43.3877 172.264L44.8519 171.309L50.2011 179.516L48.7369 180.47L46.6223 177.822L34.3297 185.834L39.2086 186.099L52.8679 188.743L53.4808 188.343L52.2883 185.919L53.7525 184.964L58.7244 192.592L57.2602 193.546L55.2343 191.034L40.0473 200.933L41.2457 203.888L39.7815 204.842L34.41 196.602ZM25.6434 204.888C25.4214 204.547 25.6964 204.125 26.4682 203.622C27.5351 202.927 28.2622 202.032 28.6493 200.939C29.0137 199.861 28.7741 198.674 27.9307 197.38C27.102 196.109 26.1356 195.445 25.0313 195.389C23.8896 195.324 22.7852 195.64 21.7182 196.335C20.9464 196.838 20.4495 196.92 20.2276 196.579L18.8958 194.536L19.4525 194.125C21.2913 192.926 23.1146 192.498 24.9224 192.84C26.7302 193.182 28.2852 194.351 29.5874 196.349C30.8747 198.324 31.3248 200.23 30.9375 202.068C30.5127 203.897 29.3923 205.404 27.5762 206.588L26.9751 206.931L25.6434 204.888Z" fill="white" stroke="white"/>
<path d="M20.0183 168.576L21.6746 168.018L23.4079 171.251L30.4565 168.875L26.5484 157.282L19.4998 159.658L20.0905 163.319L18.4343 163.877L15.2663 154.479L16.9225 153.921L18.474 156.615L35.6528 150.824L34.9222 147.639L36.5785 147.08L39.8504 156.787L38.1941 157.345L36.6785 153.867L28.5513 156.606L32.4594 168.2L40.5866 165.461L39.6873 161.775L41.3435 161.216L44.6154 170.923L42.9592 171.481L41.6123 168.503L24.4336 174.294L24.8686 177.493L23.2123 178.052L20.0183 168.576Z" fill="white" stroke="white"/>
<path d="M34.5086 114.038C35.537 115.568 35.892 117.541 35.5734 119.959C35.3787 121.437 34.8203 122.771 33.8982 123.961C32.9492 125.148 31.587 126.048 29.8116 126.662C28.0397 127.248 25.8776 127.373 23.3254 127.037C21.0418 126.736 19.0164 126.032 17.249 124.925C15.4852 123.79 14.1687 122.373 13.2993 120.673C12.4336 118.947 12.1352 117.063 12.4042 115.021C12.4998 114.295 12.6858 113.609 12.9624 112.962C13.2389 112.316 13.5282 111.78 13.8301 111.355L10.4291 111.03L5.39182 110.366L4.57782 113.744L3.08678 113.547L3.18219 107.533L3.80696 106.836L10.8592 107.766L15.1552 108.455C14.0964 106.948 13.728 104.973 14.0501 102.528C14.2448 101.051 14.8166 99.7183 15.7657 98.5314C16.6878 97.341 18.0348 96.4525 19.8067 95.866C21.5821 95.2526 23.7459 95.114 26.2981 95.4503C28.5817 95.7512 30.6054 96.4688 32.3692 97.6031C34.1097 98.7071 35.4262 100.124 36.3189 101.854C37.1882 103.554 37.4884 105.425 37.2193 107.467C37.1238 108.192 36.9377 108.878 36.6612 109.525C36.3846 110.172 36.0954 110.708 35.7934 111.133L39.1944 111.458L43.869 112.074L44.8252 108.551L46.5983 108.784L45.2391 119.101L43.4659 118.867L43.439 115.338L38.7643 114.722L34.5086 114.038ZM16.1568 111.743C15.7955 111.996 15.4076 112.451 14.9932 113.107C14.5519 113.759 14.2729 114.529 14.1561 115.416C13.8977 117.377 14.5316 119.1 16.0578 120.586C17.5606 122.041 19.9508 122.985 23.2285 123.417C26.4523 123.841 28.8944 123.562 30.5546 122.578C32.2184 121.567 33.1724 120.135 33.4166 118.281C33.5334 117.395 33.5187 116.573 33.3725 115.815C33.2298 115.031 33.039 114.405 32.8001 113.936L16.1568 111.743ZM33.4667 110.744C33.828 110.491 34.2293 110.038 34.6706 109.386C35.085 108.73 35.3506 107.958 35.4674 107.072C35.7258 105.111 35.1036 103.402 33.6008 101.947C32.0746 100.462 29.6727 99.5027 26.3951 99.0709C23.1712 98.6462 20.7274 98.9391 19.0636 99.9499C17.4034 100.934 16.4529 102.339 16.2122 104.166C16.0954 105.053 16.1084 105.888 16.251 106.672C16.3937 107.456 16.5845 108.083 16.8234 108.551L33.4667 110.744Z" fill="white" stroke="white"/>
<path d="M28.2016 92.9366C26.0202 92.0427 24.287 90.8053 23.002 89.2244C21.7273 87.6185 20.9543 85.896 20.683 84.057C20.4219 82.1929 20.6254 80.4459 21.2933 78.8161C22.588 75.6568 24.5717 73.7462 27.2443 73.0844C29.9271 72.3975 32.8733 72.7116 36.0828 74.0269C38.2642 74.9209 39.9923 76.1708 41.267 77.7768C42.552 79.3576 43.325 81.0801 43.586 82.9442C43.8574 84.7832 43.6591 86.5176 42.9912 88.1474C41.6964 91.3067 39.7076 93.2299 37.0248 93.9168C34.3521 94.5786 31.4111 94.2519 28.2016 92.9366ZM41.1125 87.1579C41.9037 85.2272 41.7754 83.4321 40.7276 81.7728C39.6798 80.1134 37.7392 78.7031 34.9059 77.542C32.1979 76.4322 29.7784 76.0118 27.6476 76.2807C25.5167 76.5495 24.03 77.712 23.1874 79.7681C22.3962 81.6988 22.5193 83.5063 23.5568 85.1908C24.6046 86.8502 26.5452 88.2604 29.3786 89.4216C32.1116 90.5416 34.5436 90.9672 36.6745 90.6983C38.7905 90.3941 40.2699 89.2139 41.1125 87.1579Z" fill="white" stroke="white"/>
<path d="M40.4153 47.0602L47.2583 51.5282L46.013 53.3357L40.5727 50.772L36.9565 55.7339L52.0855 66.1578L55.5923 61.7128L57.0316 62.7045L48.7986 74.6537L47.3593 73.6621L50.2636 68.802L35.1346 58.3782L31.7862 63.5246L36.0965 67.7283L34.8742 69.5023L28.2387 64.7331L40.4153 47.0602Z" fill="white" stroke="white"/>
<path d="M52.0459 50.4949C50.4343 48.7742 49.3732 46.9278 48.8626 44.9556C48.3717 42.9649 48.3856 41.077 48.9041 39.2919C49.4424 37.4882 50.3543 35.9843 51.6398 34.7802C54.1317 32.4462 56.7305 31.5343 59.4362 32.0446C62.1616 32.5363 64.7098 34.0479 67.081 36.5794C68.6926 38.3001 69.7438 40.1557 70.2347 42.1464C70.7453 44.1186 70.7315 46.0065 70.1932 47.8102C69.6747 49.5954 68.7726 51.09 67.4871 52.2941C64.9952 54.6281 62.3865 55.5493 59.6611 55.0575C56.9554 54.5472 54.4171 53.0264 52.0459 50.4949ZM66.1905 50.6125C67.7134 49.1861 68.3437 47.5005 68.0814 45.5556C67.8191 43.6107 66.6413 41.5208 64.5481 39.286C62.5474 37.1501 60.5224 35.761 58.4729 35.1188C56.4234 34.4766 54.5878 34.915 52.966 36.434C51.4432 37.8604 50.803 39.5553 51.0455 41.5187C51.3078 43.4636 52.4856 45.5535 54.5788 47.7883C56.598 49.944 58.6323 51.343 60.6818 51.9852C62.7326 52.589 64.5688 52.1315 66.1905 50.6125Z" fill="white" stroke="white"/>
<path d="M91.8439 10.0474L92.4394 11.6906L89.3607 13.4549L94.2913 27.0593L95.5492 23.0149L101.363 9.71029L101.169 9.17529L97.9805 9.68237L97.385 8.03915L106.289 4.81212L106.884 6.45534L104.226 8.0673L110.403 25.1109L113.495 24.3364L114.09 25.9796L104.881 29.3174L104.285 27.6742L107.346 26.2189L102.346 12.4235L100.976 17.1137L95.2885 29.8107L95.5378 30.4986L98.1707 29.8902L98.7663 31.5334L90.2062 34.6358L89.6107 32.9926L92.5188 31.5927L86.3418 14.5491L83.1915 15.0423L82.596 13.3991L91.8439 10.0474Z" fill="white" stroke="white"/>
<path d="M112.82 15.2062C112.533 13.0301 112.687 10.9872 113.283 9.07743C113.902 7.13729 114.974 5.52018 116.498 4.22609C118.049 2.92846 120.033 2.12037 122.451 1.8018C123.499 1.66375 124.537 1.66357 125.567 1.80127C126.593 1.91209 127.488 2.06748 128.252 2.26743L128.85 8.05136L126.835 8.31684L125.479 4.55967C125.212 3.77494 124.004 3.52416 121.854 3.80733C119.759 4.08342 118.186 5.11062 117.136 6.88893C116.112 8.66369 115.784 10.9481 116.153 13.7421C116.592 17.0735 117.596 19.5104 119.166 21.0528C120.736 22.5952 122.595 23.2248 124.744 22.9417C125.873 22.793 126.936 22.4616 127.934 21.9474C128.959 21.4297 129.789 20.883 130.424 20.3074L131.244 21.5523C130.568 22.4341 129.581 23.2473 128.286 23.992C126.99 24.7367 125.67 25.1976 124.327 25.3745C122.205 25.6542 120.326 25.3961 118.69 24.6003C117.051 23.7776 115.729 22.5579 114.723 20.9411C113.741 19.294 113.106 17.3823 112.82 15.2062Z" fill="white" stroke="white"/>
<path d="M146.661 12.338C147.548 12.8615 148.376 13.6525 149.144 14.711C149.914 15.7425 150.822 17.1366 151.868 18.8935C152.672 20.2261 153.283 21.2057 153.701 21.8324C154.148 22.4339 154.571 22.8028 154.969 22.9392L156.441 23.449L156.32 25.1926L153.076 24.967C152.346 24.9162 151.646 24.4329 150.976 23.5171C150.308 22.5743 149.469 21.1713 148.458 19.3082C147.423 17.3891 146.546 15.9428 145.826 14.9691C145.133 13.9974 144.394 13.4842 143.61 13.4297L140.366 13.2041L139.757 21.9627L143.465 22.5465L143.344 24.2901L133.247 23.5879L133.369 21.8443L136.635 21.7455L137.893 3.66071L134.772 2.83249L134.894 1.08889L144.706 1.77139L144.585 3.515L141.015 3.87787L140.485 11.5011L144.702 11.7944L151.193 4.58575L148.072 3.75754L148.194 2.01394L156.993 2.62593L156.871 4.36953L153.95 4.77753L146.661 12.338Z" fill="white" stroke="white"/>
<path d="M156.297 35.9367C155.933 35.8306 155.563 35.6946 155.188 35.5289C154.839 35.3707 154.598 35.2298 154.464 35.1063L155.306 32.2186C155.573 32.4656 156.213 32.737 157.228 33.0327C158.034 33.2678 158.812 33.311 159.561 33.1623C160.328 33.0473 161.207 32.5978 162.198 31.8139C163.188 31.03 164.299 29.7871 165.529 28.0851L163.812 27.5847L162.056 5.86176L160.37 4.81993L160.836 3.21997L169.46 5.73339L168.994 7.33335L165.696 6.88042L166.314 20.0157L166.489 26.9679L170.306 21.1367L177.442 10.3037L174.847 9.03929L175.314 7.43933L182.806 9.62293L182.34 11.2229L180.174 11.0998C176.479 16.5147 173.566 20.7464 171.436 23.7948C169.339 26.8248 168.025 28.6715 167.493 29.335C165.915 31.359 164.597 32.88 163.538 33.898C162.472 34.942 161.362 35.649 160.21 36.0188C159.058 36.3887 157.754 36.3613 156.297 35.9367Z" fill="white" stroke="white"/>
<path d="M180.46 21.094C181.463 19.1416 182.752 17.5498 184.329 16.3186C185.942 15.0758 187.744 14.3561 189.734 14.1596C191.747 13.9754 193.839 14.4405 196.008 15.5548C196.948 16.0377 197.802 16.6287 198.571 17.3279C199.351 18.0029 199.998 18.6401 200.513 19.2396L197.713 24.3356L195.905 23.407L196.928 19.546C197.155 18.7486 196.305 17.8546 194.376 16.8641C192.496 15.8984 190.618 15.8477 188.742 16.712C186.891 17.5887 185.321 19.2805 184.033 21.7873C182.498 24.7762 181.937 27.3515 182.35 29.5132C182.763 31.6749 183.933 33.251 185.861 34.2415C186.874 34.7615 187.937 35.0942 189.05 35.2396C190.188 35.3974 191.181 35.4204 192.031 35.3084L191.996 36.7987C190.938 37.1387 189.664 37.246 188.175 37.1207C186.686 36.9955 185.339 36.6233 184.133 36.0043C182.229 35.0261 180.831 33.7445 179.94 32.1593C179.06 30.55 178.667 28.7945 178.761 26.8928C178.89 24.9793 179.457 23.0464 180.46 21.094Z" fill="white" stroke="white"/>
<path d="M198.5 30.4992C199.837 28.7578 201.39 27.4225 203.162 26.4934C204.972 25.5593 206.873 25.1736 208.866 25.3364C210.88 25.5156 212.854 26.3474 214.789 27.832C215.628 28.4753 216.362 29.2096 216.993 30.0349C217.64 30.8387 218.163 31.5815 218.562 32.2634L214.895 36.776L213.282 35.5388L214.98 31.9234C215.346 31.1794 214.669 30.1477 212.949 28.8281C211.272 27.5415 209.434 27.1555 207.434 27.6702C205.455 28.2014 203.608 29.585 201.892 31.8209C199.847 34.4868 198.834 36.9201 198.853 39.1207C198.873 41.3214 199.742 43.0816 201.462 44.4012C202.365 45.094 203.351 45.6115 204.421 45.9538C205.512 46.3126 206.485 46.513 207.341 46.5548L207.04 48.0149C205.939 48.1601 204.666 48.0377 203.223 47.648C201.781 47.2582 200.522 46.651 199.447 45.8262C197.748 44.5231 196.602 43.012 196.009 41.2928C195.431 39.5521 195.359 37.7546 195.791 35.9004C196.261 34.041 197.164 32.2407 198.5 30.4992Z" fill="white" stroke="white"/>
<path d="M238.033 52.1698L232.005 57.6877L230.563 56.0323L234.399 51.3998L230.491 46.6639L216.634 58.7278L220.068 63.2292L218.75 64.3769L209.222 53.4326L210.54 52.2849L214.526 56.3059L228.383 44.2421L224.23 39.7197L219.087 42.8501L217.672 41.2253L223.941 35.9832L238.033 52.1698Z" fill="white" stroke="white"/>
<path d="M243.567 60.8504C243.736 61.1595 244.156 61.8717 244.828 62.9869C245.656 64.3874 246.277 65.4681 246.694 66.2289C248.267 69.1057 248.979 71.3411 248.832 72.9352C248.721 74.54 247.893 75.7649 246.348 76.61C245.206 77.234 244.06 77.3974 242.91 77.1002C241.759 76.803 240.673 76.1456 239.654 75.128C240.497 76.9524 240.727 78.5872 240.343 80.0322C239.984 81.4643 239.186 82.5183 237.949 83.1944C235.929 84.2994 233.967 84.3837 232.065 83.4471C230.187 82.4975 228.344 80.3704 226.537 77.0656C226.16 76.3761 225.553 75.21 224.717 73.5673L223.56 71.2815L221.746 67.9648L223.279 67.1262L225.112 69.46L240.875 60.8403L240.044 58.0514L241.578 57.2128L243.567 60.8504ZM238.122 71.0552C239.019 72.6957 240.02 73.7079 241.125 74.0917C242.268 74.4862 243.421 74.365 244.586 73.7279C245.561 73.1949 246.09 72.4115 246.173 71.3776C246.293 70.3546 245.84 68.9039 244.813 67.0256L242.824 63.388L235.976 67.1323L238.122 71.0552ZM226.633 72.2417C226.704 72.5422 226.913 73.0924 227.257 73.8922C227.626 74.679 227.966 75.3577 228.278 75.9283C229.175 77.5689 230.003 78.7996 230.76 79.6206C231.542 80.4286 232.335 80.8906 233.14 81.0065C233.944 81.1225 234.834 80.9139 235.809 80.3809C237.188 79.6268 237.963 78.616 238.135 77.3485C238.306 76.081 237.879 74.5082 236.852 72.6299L234.336 68.0294L226.633 72.2417Z" fill="white" stroke="white"/>
<path d="M243.254 84.2897C245.517 83.6301 247.644 83.5183 249.634 83.9545C251.631 84.4167 253.309 85.2825 254.667 86.5521C256.032 87.8476 256.961 89.3409 257.454 91.0319C258.409 94.3099 258.048 97.0402 256.37 99.2228C254.699 101.432 252.198 103.021 248.868 103.992C246.605 104.651 244.475 104.75 242.477 104.288C240.487 103.852 238.809 102.986 237.444 101.69C236.086 100.421 235.161 98.9404 234.668 97.2494C233.712 93.9714 234.07 91.2281 235.741 89.0194C237.419 86.8368 239.924 85.2602 243.254 84.2897ZM236.754 96.8531C237.338 98.8563 238.556 100.181 240.41 100.826C242.263 101.471 244.66 101.365 247.599 100.509C250.409 99.6899 252.564 98.5115 254.063 96.9738C255.562 95.436 256.001 93.6005 255.379 91.4672C254.796 89.464 253.573 88.1268 251.712 87.4554C249.859 86.8101 247.462 86.9158 244.523 87.7726C241.687 88.599 239.519 89.7811 238.02 91.3189C236.554 92.8751 236.132 94.7198 236.754 96.8531Z" fill="white" stroke="white"/>
</svg>
