<svg width="278" height="283" viewBox="0 0 278 283" fill="none" xmlns="http://www.w3.org/2000/svg">
    <style xmlns="http://www.w3.org/2000/svg">
        svg {
            animation: rotate 10s linear infinite;
            overflow: hidden;
            pointer-events: none;
        }
    
        @keyframes rotate {
        to {
            transform: rotate(360deg);
        }
    </style>
    <path d="M253.669 195.957C253.146 197.055 252.446 197.909 251.57 198.519C250.709 199.137 249.749 199.477 248.691 199.54C247.626 199.617 246.552 199.397 245.469 198.881C244.357 198.351 243.491 197.619 242.872 196.686C242.268 195.76 241.951 194.714 241.922 193.548C241.893 192.382 242.165 191.2 242.736 190.001C243.693 187.993 245.097 186.757 246.95 186.293C248.802 185.829 250.977 186.192 253.475 187.383C255.801 188.492 257.405 189.868 258.287 191.512C259.17 193.156 259.339 195.106 258.794 197.364L257.381 203.284L254.769 202.517L256.096 197.167C256.475 195.629 256.483 194.348 256.121 193.324C255.758 192.3 254.976 191.431 253.774 190.716C254.147 191.532 254.325 192.388 254.306 193.283C254.301 194.185 254.089 195.076 253.669 195.957ZM244.893 191.109C244.418 192.105 244.354 193.058 244.7 193.968C245.054 194.899 245.729 195.602 246.726 196.077C247.722 196.552 248.672 196.624 249.574 196.292C250.47 195.974 251.156 195.317 251.631 194.321C252.113 193.31 252.198 192.349 251.888 191.439C251.577 190.529 250.924 189.836 249.927 189.361C248.916 188.879 247.945 188.797 247.013 189.115C246.075 189.448 245.368 190.112 244.893 191.109Z" fill="#FFD566" />
    <path d="M237.335 212.017C237.161 211.903 236.923 211.727 236.619 211.49L242.141 203.085C241.256 202.714 240.377 202.682 239.505 202.99C238.637 203.32 237.9 203.946 237.294 204.869C236.521 206.045 236.272 207.269 236.546 208.541L234.119 208.87C233.86 208.011 233.825 207.117 234.014 206.188C234.204 205.26 234.601 204.334 235.207 203.411C235.981 202.235 236.896 201.352 237.952 200.764C239.009 200.175 240.114 199.906 241.268 199.956C242.427 200.028 243.535 200.411 244.591 201.105C245.634 201.791 246.416 202.64 246.938 203.653C247.464 204.687 247.684 205.78 247.599 206.93C247.513 208.08 247.123 209.183 246.429 210.239C245.744 211.282 244.899 212.058 243.895 212.566C242.896 213.096 241.826 213.312 240.685 213.213C239.548 213.136 238.432 212.738 237.335 212.017ZM244.424 208.921C244.951 208.119 245.158 207.279 245.046 206.401C244.938 205.545 244.529 204.798 243.819 204.159L239.826 210.237C240.672 210.639 241.516 210.725 242.357 210.493C243.199 210.261 243.888 209.737 244.424 208.921Z" fill="#FFD566" />
    <path d="M226.568 214.835C227.426 213.821 228.409 213.091 229.519 212.646C230.628 212.201 231.753 212.073 232.892 212.261C234.044 212.46 235.103 212.967 236.068 213.783C237.034 214.599 237.704 215.554 238.079 216.646C238.455 217.739 238.52 218.863 238.277 220.018C238.023 221.186 237.462 222.284 236.594 223.31C235.778 224.275 234.87 224.953 233.869 225.344C232.859 225.746 231.832 225.821 230.789 225.568L231.25 222.94C231.939 223.042 232.575 222.971 233.156 222.73C233.74 222.51 234.243 222.15 234.667 221.649C235.39 220.794 235.708 219.848 235.621 218.811C235.546 217.784 235.045 216.878 234.116 216.093C233.187 215.308 232.21 214.952 231.183 215.027C230.158 215.124 229.278 215.607 228.545 216.474C228.122 216.975 227.844 217.526 227.713 218.128C227.584 218.752 227.626 219.395 227.841 220.059L225.327 220.95C224.914 219.952 224.816 218.916 225.032 217.842C225.251 216.79 225.763 215.788 226.568 214.835Z" fill="#FFD566" />
    <path d="M221.408 238.24L212.75 228.791L214.944 226.781L221.884 234.354L226.537 230.089L219.597 222.516L221.809 220.49L230.468 229.938L221.408 238.24Z" fill="#FFD566" />
    <path d="M207.864 248.021L200.554 237.494L203.018 235.783L208.877 244.22L212.82 241.483L211.467 239.325C210.566 237.886 209.885 236.625 209.425 235.542C208.961 234.481 208.767 233.515 208.844 232.643C208.917 231.794 209.347 231.096 210.136 230.548C210.504 230.293 211.007 230.05 211.647 229.821L212.966 231.973C212.754 232.061 212.583 232.151 212.452 232.242C211.952 232.589 211.714 233.046 211.739 233.614C211.772 234.195 211.947 234.784 212.265 235.381C212.578 236.001 213.069 236.849 213.738 237.923L216.38 242.107L207.864 248.021Z" fill="#FFD566" />
    <path d="M199.37 252.905C197.697 253.78 196.21 254.043 194.908 253.695C193.6 253.368 192.523 252.396 191.678 250.78L188.196 244.124L190.705 242.811L191.428 244.194C191.495 243.527 191.763 242.899 192.231 242.311C192.693 241.744 193.35 241.239 194.2 240.794C195.051 240.349 195.869 240.101 196.656 240.051C197.449 240.015 198.157 240.159 198.778 240.484C199.393 240.831 199.871 241.33 200.212 241.983C200.746 243.003 200.797 244.015 200.364 245.018C199.925 246.042 198.89 246.981 197.26 247.833L194.325 249.369L194.414 249.539C194.829 250.333 195.389 250.816 196.093 250.989C196.784 251.17 197.597 251.016 198.533 250.526C199.171 250.192 199.75 249.763 200.27 249.238C200.775 248.721 201.148 248.174 201.388 247.597L203.443 248.987C203.084 249.752 202.55 250.474 201.84 251.153C201.129 251.831 200.306 252.415 199.37 252.905ZM194.66 243.018C193.993 243.367 193.483 243.823 193.128 244.388C192.767 244.974 192.628 245.607 192.712 246.285L193.402 247.603L196.145 246.168C197.676 245.368 198.178 244.464 197.652 243.457C197.4 242.975 197.008 242.692 196.477 242.609C195.946 242.526 195.34 242.662 194.66 243.018Z" fill="#FFD566" />
    <path d="M179.275 258.638L183.465 257.029L179.785 247.44L182.586 246.365L186.266 255.954L190.479 254.338L191.39 256.713L180.187 261.013L179.275 258.638Z" fill="#FFD566" />
    <path d="M177.052 261.973L174.139 262.691L172.892 257.635L166.624 259.181L167.871 264.238L164.958 264.956L161.889 252.513L164.802 251.795L166.014 256.711L172.282 255.165L171.07 250.248L173.982 249.53L177.052 261.973Z" fill="#FFD566" />
    <path d="M153.539 262.209C151.914 262.353 150.638 262.097 149.712 261.441C148.786 260.784 148.264 259.786 148.145 258.448C148.02 257.045 148.402 255.919 149.29 255.069C150.162 254.22 151.468 253.727 153.206 253.588L158.994 253.098L160.129 265.863L157.141 266.129L156.769 261.946L153.539 262.209ZM147.244 267.009L144.256 267.275L143.12 254.509L146.108 254.244L147.244 267.009ZM153.665 255.764C152.787 255.826 152.134 256.069 151.706 256.493C151.278 256.916 151.096 257.495 151.161 258.228C151.225 258.945 151.495 259.451 151.971 259.746C152.447 260.041 153.14 260.156 154.05 260.091L156.586 259.89L156.201 255.563L153.665 255.764Z" fill="#FFD566" />
    <path d="M139.038 267.202L136.044 267.006L136.598 258.576L128.98 266.542L126.249 266.362L127.089 253.574L130.083 253.771L129.529 262.2L137.124 254.233L139.878 254.414L139.038 267.202ZM132.736 268.304C134.029 268.389 135 268.749 135.648 269.385C136.278 270.036 136.564 270.936 136.504 272.087L134.517 271.956C134.538 271.38 134.393 270.914 134.079 270.557C133.75 270.198 133.274 269.999 132.652 269.958C132.045 269.918 131.555 270.054 131.182 270.366C130.792 270.677 130.571 271.12 130.517 271.694L128.482 271.56C128.573 270.411 128.982 269.556 129.708 268.995C130.434 268.449 131.443 268.219 132.736 268.304Z" fill="#FFD566" />
    <path d="M103.328 261.476L106.539 249.068L109.42 249.814L106.846 259.758L112.957 261.34L115.531 251.395L118.435 252.147L115.224 264.554L103.328 261.476Z" fill="#FFD566" />
    <path d="M91.8651 257.249C90.7121 256.771 89.7888 256.094 89.0952 255.218C88.3869 254.336 87.9638 253.329 87.8261 252.199C87.6883 251.068 87.8674 249.904 88.3633 248.706C88.8592 247.509 89.5587 246.552 90.4618 245.835C91.3588 245.133 92.3696 244.72 93.4943 244.597C94.6042 244.468 95.7356 244.642 96.8886 245.12C98.4851 245.781 99.5286 246.837 100.019 248.287L102.398 242.544L105.169 243.692L98.4835 259.834L95.8449 258.741L96.4877 257.189C95.7968 257.561 95.0606 257.749 94.2791 257.755C93.4828 257.754 92.6781 257.585 91.8651 257.249ZM96.2164 247.621C95.1964 247.198 94.2204 247.192 93.2883 247.603C92.3415 248.008 91.6385 248.764 91.1793 249.873C90.7201 250.981 90.6823 252.014 91.0659 252.969C91.4346 253.918 92.129 254.604 93.149 255.027C93.8142 255.302 94.4772 255.395 95.1379 255.305C95.7925 255.23 96.3913 254.976 96.9344 254.542C97.4775 254.109 97.9021 253.523 98.2083 252.784C98.5144 252.045 98.6286 251.33 98.5508 250.64C98.473 249.95 98.2323 249.339 97.8288 248.808C97.419 248.292 96.8816 247.896 96.2164 247.621Z" fill="#FFD566" />
    <path d="M75.2265 241.02C75.3316 240.841 75.495 240.593 75.7167 240.278L84.3936 245.361C84.7189 244.457 84.7055 243.578 84.3535 242.723C83.9796 241.873 83.3164 241.17 82.3638 240.612C81.1489 239.9 79.9134 239.714 78.6574 240.054L78.204 237.646C79.0488 237.344 79.9398 237.263 80.877 237.404C81.8143 237.545 82.7592 237.895 83.7118 238.453C84.9267 239.165 85.8551 240.033 86.497 241.058C87.1389 242.083 87.4646 243.173 87.474 244.328C87.4615 245.489 87.1358 246.615 86.4969 247.706C85.8661 248.782 85.0584 249.607 84.0738 250.18C83.0673 250.759 81.9877 251.035 80.8349 251.009C79.6821 250.982 78.5603 250.65 77.4697 250.011C76.3928 249.38 75.5749 248.576 75.0158 247.6C74.4348 246.629 74.1643 245.571 74.2044 244.427C74.2226 243.288 74.5633 242.152 75.2265 241.02ZM78.6828 247.94C79.5111 248.425 80.3608 248.589 81.2317 248.432C82.0808 248.28 82.8061 247.834 83.4075 247.092L77.1328 243.416C76.7742 244.282 76.7323 245.129 77.0072 245.957C77.2821 246.786 77.8406 247.447 78.6828 247.94Z" fill="#FFD566" />
    <path d="M63.8245 227.535L67.1582 223.287L69.3672 225.02L67.6041 227.267L75.3828 233.371L77.146 231.124L79.3361 232.843L76.0024 237.091L75.5304 236.721C74.8687 236.242 74.1134 236.311 73.2646 236.926C72.3932 237.544 71.3469 238.553 70.1256 239.954L67.282 243.305L58.9746 236.786L65.3161 228.705L63.8245 227.535ZM68.1066 238.095C69.0657 236.976 69.9009 236.106 70.6122 235.485C71.3236 234.864 72.0001 234.52 72.6417 234.454L67.6761 230.557L62.9052 236.637L66.7757 239.674L68.1066 238.095Z" fill="#FFD566" />
    <path d="M53.7867 223.22C53.382 222.495 53.2092 221.798 53.2682 221.131C53.3046 220.464 53.5726 219.882 54.0722 219.386C54.6285 218.834 55.3085 218.531 56.1119 218.477C56.9041 218.435 57.7463 218.624 58.6385 219.046C59.5308 219.468 60.394 220.099 61.2281 220.939C61.927 221.643 62.5295 222.409 63.0357 223.237C63.5304 224.076 63.895 224.92 64.1295 225.77L61.9368 226.729C61.747 226.038 61.4441 225.347 61.028 224.655C60.6119 223.964 60.1276 223.34 59.5753 222.783C58.8651 222.068 58.2049 221.618 57.5946 221.435C56.9617 221.252 56.4522 221.352 56.0662 221.735C55.7142 222.085 55.5995 222.514 55.7221 223.024C55.8334 223.522 56.1709 224.055 56.7345 224.623L58.493 226.394L57.0623 227.814L55.4729 226.213C54.9431 225.68 54.4408 225.355 53.966 225.24C53.48 225.114 53.0723 225.215 52.7431 225.541C52.4138 225.868 52.333 226.309 52.5007 226.864C52.6683 227.419 53.0678 228.015 53.6991 228.651C54.6009 229.559 55.7748 230.299 57.2209 230.87L56.1951 232.97C54.4551 232.33 52.982 231.403 51.7758 230.188C51.0093 229.416 50.4295 228.616 50.0366 227.789C49.6322 226.973 49.454 226.203 49.5019 225.479C49.5271 224.755 49.7839 224.15 50.2722 223.666C50.715 223.226 51.2477 222.968 51.8702 222.891C52.4814 222.825 53.1202 222.935 53.7867 223.22Z" fill="#FFD566" />
    <path d="M41.7744 218.801C40.6143 217.311 40.0892 215.895 40.1991 214.552C40.2866 213.206 41.0498 211.973 42.4888 210.852L48.4153 206.236L50.1555 208.47L48.9248 209.429C49.5927 209.375 50.258 209.526 50.9206 209.882C51.5607 210.235 52.1757 210.79 52.7656 211.548C53.3555 212.305 53.7455 213.066 53.9355 213.831C54.1128 214.605 54.0972 215.327 53.8885 215.997C53.6574 216.664 53.2516 217.223 52.6709 217.675C51.7621 218.383 50.7757 218.614 49.7119 218.368C48.6255 218.119 47.517 217.268 46.3864 215.817L44.3512 213.204L44.1998 213.322C43.4929 213.872 43.1172 214.51 43.0728 215.234C43.0186 215.945 43.3159 216.718 43.9648 217.551C44.4072 218.119 44.9331 218.612 45.5424 219.03C46.1419 219.435 46.7469 219.704 47.3574 219.837L46.357 222.106C45.5402 221.891 44.7344 221.494 43.9398 220.917C43.1451 220.339 42.4233 219.634 41.7744 218.801ZM50.6592 212.398C50.1971 211.804 49.6565 211.384 49.0375 211.136C48.396 210.885 47.7491 210.862 47.0967 211.065L45.9228 211.98L47.8252 214.422C48.887 215.786 49.8661 216.118 50.7623 215.42C51.1915 215.086 51.3996 214.65 51.3866 214.113C51.3736 213.575 51.1311 213.003 50.6592 212.398Z" fill="#FFD566" />
    <path d="M39.6267 201.884L40.8255 203.88L45.2282 201.235L46.773 203.807L35.7868 210.407L34.242 207.835L38.6859 205.165L37.45 203.108L31.0535 202.527L29.3974 199.77L37.0823 200.585L40.2229 192.903L42.0396 195.927L39.6267 201.884Z" fill="#FFD566" />
    <path d="M25.8507 192.302C25.0893 190.574 24.9259 189.073 25.3605 187.797C25.7739 186.513 26.8152 185.504 28.4843 184.768L35.3585 181.739L36.5005 184.33L35.0729 184.959C35.7338 185.07 36.342 185.379 36.8976 185.886C37.4322 186.385 37.893 187.074 38.2801 187.952C38.6673 188.831 38.8596 189.664 38.8571 190.452C38.84 191.246 38.6485 191.943 38.2827 192.541C37.8958 193.131 37.3656 193.574 36.6921 193.871C35.6379 194.336 34.6251 194.319 33.6535 193.82C32.6609 193.314 31.7936 192.218 31.0516 190.534L29.716 187.504L29.5403 187.581C28.7204 187.942 28.2005 188.469 27.9807 189.16C27.7543 189.837 27.8541 190.658 28.2799 191.625C28.5703 192.284 28.9599 192.89 29.4487 193.444C29.9312 193.983 30.4522 194.392 31.0118 194.67L29.4874 196.627C28.7479 196.218 28.0634 195.637 27.4338 194.883C26.8042 194.128 26.2765 193.268 25.8507 192.302ZM36.0299 188.262C35.7267 187.574 35.3052 187.034 34.7655 186.642C34.2046 186.243 33.583 186.062 32.9005 186.1L31.5389 186.7L32.7874 189.534C33.4842 191.115 34.3524 191.676 35.3919 191.218C35.8897 190.999 36.1979 190.627 36.3166 190.103C36.4352 189.578 36.3396 188.965 36.0299 188.262Z" fill="#FFD566" />
    <path d="M25.6275 173.179C25.6093 172.349 25.7823 171.652 26.1466 171.09C26.491 170.517 27 170.128 27.6736 169.924C28.4237 169.696 29.1664 169.746 29.9016 170.075C30.6216 170.408 31.2771 170.969 31.8684 171.76C32.4596 172.55 32.9273 173.512 33.2715 174.644C33.5598 175.594 33.734 176.552 33.7941 177.521C33.8389 178.494 33.7662 179.41 33.5761 180.271L31.1893 180.093C31.3447 179.394 31.4003 178.641 31.3562 177.835C31.312 177.029 31.176 176.251 30.9481 175.501C30.6551 174.536 30.2817 173.83 29.8281 173.383C29.3545 172.925 28.8574 172.775 28.3369 172.933C27.8623 173.077 27.56 173.403 27.43 173.911C27.2953 174.403 27.3442 175.032 27.5768 175.798L28.3023 178.186L26.3733 178.772L25.7176 176.613C25.499 175.894 25.2068 175.372 24.8409 175.048C24.4704 174.71 24.0631 174.607 23.6192 174.742C23.1752 174.877 22.8975 175.229 22.7861 175.798C22.6746 176.367 22.7491 177.08 23.0096 177.938C23.3817 179.162 24.0732 180.365 25.0842 181.546L23.1947 182.923C21.9563 181.543 21.0882 180.035 20.5906 178.396C20.2743 177.355 20.136 176.377 20.1758 175.462C20.2002 174.552 20.4029 173.788 20.7839 173.171C21.1449 172.543 21.6546 172.129 22.3129 171.929C22.9099 171.747 23.5015 171.768 24.0877 171.991C24.6586 172.219 25.1719 172.615 25.6275 173.179Z" fill="#FFD566" />
    <path d="M27.3714 88.6803C27.8742 87.5731 28.5578 86.7061 29.4223 86.0795C30.2721 85.4462 31.2254 85.0883 32.282 85.0058C33.3453 84.9088 34.4233 85.1083 35.5159 85.6044C36.6377 86.1138 37.5165 86.8292 38.1525 87.7506C38.7739 88.6653 39.1099 89.7053 39.1607 90.8706C39.2115 92.0358 38.9623 93.2231 38.4132 94.4322C37.4937 96.4572 36.1124 97.719 34.2694 98.2176C32.4263 98.7162 30.2446 98.3933 27.7243 97.2488C25.3788 96.1838 23.7495 94.8377 22.8366 93.2107C21.9236 91.5836 21.7183 89.6365 22.2206 87.3693L23.5233 81.424L26.1494 82.142L24.9219 87.5153C24.5716 89.0607 24.5873 90.3418 24.9691 91.3587C25.3508 92.3755 26.149 93.2299 27.3635 93.922C26.9752 93.1131 26.7822 92.2611 26.7845 91.3659C26.7723 90.4642 26.9679 89.5689 27.3714 88.6803ZM36.2359 93.3645C36.6923 92.3592 36.739 91.4052 36.3758 90.5022C36.0047 89.5781 35.3165 88.8878 34.3113 88.4313C33.3061 87.9749 32.3553 87.921 31.459 88.2695C30.5693 88.6036 29.8962 89.2732 29.4397 90.2784C28.9767 91.2982 28.9088 92.2602 29.2363 93.1645C29.5637 94.0688 30.23 94.7492 31.2352 95.2056C32.255 95.6687 33.2276 95.7326 34.1531 95.3972C35.0852 95.0473 35.7794 94.3697 36.2359 93.3645Z" fill="#FFD566" />
    <path d="M43.0948 72.7546C43.2711 72.865 43.5136 73.0356 43.8221 73.2665L38.4863 81.7901C39.3798 82.1419 40.2592 82.1544 41.1243 81.8277C41.9845 81.4789 42.7074 80.8366 43.2932 79.9009C44.0403 78.7074 44.2625 77.478 43.9599 76.2126L46.3795 75.8302C46.657 76.6834 46.7115 77.5764 46.5429 78.5091C46.3743 79.4418 45.9971 80.376 45.4114 81.3118C44.6643 82.5052 43.769 83.4077 42.7255 84.0192C41.682 84.6307 40.5828 84.9242 39.4278 84.8996C38.2678 84.853 37.1521 84.4943 36.0807 83.8236C35.0229 83.1614 34.2221 82.3298 33.6784 81.3288C33.1297 80.3057 32.8854 79.2184 32.9456 78.0668C33.0058 76.9153 33.3712 75.8038 34.0419 74.7324C34.7041 73.6746 35.5315 72.8806 36.524 72.3505C37.5115 71.7983 38.5767 71.5591 39.7198 71.6329C40.8577 71.6846 41.9828 72.0585 43.0948 72.7546ZM36.0762 76.0059C35.5668 76.8196 35.3779 77.6641 35.5096 78.5393C35.6362 79.3925 36.0613 80.1306 36.7851 80.7535L40.6437 74.5896C39.7891 74.2057 38.9437 74.139 38.1074 74.3894C37.2711 74.6398 36.594 75.1786 36.0762 76.0059Z" fill="#FFD566" />
    <path d="M54.0064 69.4145C53.1676 70.4441 52.1977 71.1915 51.0966 71.6565C49.9955 72.1215 48.8734 72.2703 47.7304 72.1028C46.575 71.9251 45.5073 71.4371 44.5273 70.6388C43.5473 69.8405 42.8597 68.8986 42.4645 67.8131C42.0693 66.7275 41.983 65.6048 42.2057 64.4448C42.4385 63.2724 42.9793 62.1651 43.8281 61.1231C44.6264 60.1431 45.5222 59.4489 46.5154 59.0404C47.5186 58.6194 48.544 58.5261 49.5915 58.7602L49.1783 61.3954C48.4869 61.3068 47.8527 61.3886 47.2757 61.6409C46.6965 61.8707 46.1997 62.2399 45.7853 62.7485C45.078 63.6168 44.7772 64.5687 44.883 65.6042C44.9763 66.6296 45.4944 67.5263 46.4372 68.2943C47.38 69.0623 48.3641 69.3996 49.3894 69.3062C50.4125 69.1903 51.2828 68.692 52.0002 67.8112C52.4146 67.3026 52.6819 66.7465 52.8021 66.1428C52.9201 65.5167 52.8659 64.874 52.6393 64.2148L55.1365 63.2773C55.5675 64.2682 55.6845 65.3025 55.4876 66.3803C55.2883 67.4355 54.7946 68.4469 54.0064 69.4145Z" fill="#FFD566" />
    <path d="M58.8146 45.8059L67.6435 55.0957L65.4863 57.1459L58.41 49.7001L53.8347 54.0484L60.911 61.4942L58.7364 63.5609L49.9075 54.2711L58.8146 45.8059Z" fill="#FFD566" />
    <path d="M71.5039 36.2238L79.0429 46.5878L76.6168 48.3526L70.5743 40.0458L66.6927 42.8694L68.0921 44.9973C69.0251 46.4159 69.7334 47.6616 70.217 48.7343C70.7041 49.7848 70.9188 50.7464 70.8613 51.6193C70.8073 52.4698 70.3921 53.1774 69.6157 53.7421C69.2535 54.0056 68.7553 54.2592 68.1213 54.5027L66.7553 52.3802C66.9647 52.2872 67.1341 52.1937 67.2635 52.0996C67.7552 51.7419 67.9827 51.2796 67.9462 50.7126C67.9003 50.1327 67.712 49.5474 67.3814 48.9569C67.0543 48.3441 66.5449 47.5078 65.8531 46.448L63.1195 42.3228L71.5039 36.2238Z" fill="#FFD566" />
    <path d="M80.1675 30.9349C81.824 30.029 83.3062 29.7383 84.6142 30.0625C85.9284 30.365 87.0231 31.3165 87.8983 32.9168L91.5024 39.5078L89.0176 40.8665L88.2691 39.4978C88.2149 40.1657 87.9589 40.798 87.5012 41.3948C87.0497 41.9699 86.4029 42.4878 85.5606 42.9484C84.7183 43.409 83.9045 43.6716 83.1193 43.7363C82.3263 43.7869 81.6162 43.6555 80.9889 43.342C80.368 43.0068 79.8809 42.5164 79.5278 41.8706C78.9751 40.8599 78.9057 39.8492 79.3197 38.8387C79.74 37.8065 80.7573 36.849 82.3717 35.9662L85.2776 34.3772L85.1855 34.2088C84.7556 33.4226 84.1869 32.9495 83.4793 32.7893C82.7857 32.6215 81.9757 32.7909 81.0492 33.2976C80.4174 33.643 79.8465 34.0829 79.3363 34.6172C78.8401 35.1438 78.4774 35.6977 78.2482 36.279L76.1685 34.927C76.5125 34.1553 77.0333 33.4237 77.7311 32.7322C78.4288 32.0406 79.241 31.4415 80.1675 30.9349ZM85.0602 40.7328C85.72 40.372 86.222 39.906 86.5662 39.3348C86.9167 38.742 87.0437 38.1072 86.9472 37.4305L86.2333 36.125L83.5169 37.6104C82.0008 38.4394 81.5153 39.3523 82.0603 40.349C82.3213 40.8263 82.7181 41.1017 83.2506 41.1752C83.7832 41.2487 84.3864 41.1012 85.0602 40.7328Z" fill="#FFD566" />
    <path d="M100.082 24.7903L95.923 26.4767L99.7826 35.996L97.0024 37.1232L93.1428 27.6039L88.9615 29.2992L88.0056 26.9416L99.1263 22.4328L100.082 24.7903Z" fill="#FFD566" />
    <path d="M102.3 21.3276L105.199 20.5539L106.542 25.5857L112.78 23.9207L111.437 18.8889L114.335 18.1152L117.64 30.4977L114.742 31.2714L113.436 26.3787L107.198 28.0437L108.504 32.9364L105.606 33.71L102.3 21.3276Z" fill="#FFD566" />
    <path d="M125.948 20.5617C127.57 20.3858 128.851 20.6172 129.789 21.2559C130.727 21.8945 131.269 22.8819 131.413 24.2181C131.565 25.6179 131.205 26.7513 130.333 27.6182C129.478 28.4835 128.182 29.0021 126.446 29.174L120.67 29.7759L119.289 17.0345L122.271 16.7113L122.724 20.8868L125.948 20.5617ZM132.15 15.6409L135.132 15.3177L136.513 28.0591L133.53 28.3823L132.15 15.6409ZM125.946 27.0073C126.823 26.9284 127.471 26.6731 127.891 26.2414C128.311 25.8096 128.481 25.2279 128.402 24.4962C128.324 23.7804 128.045 23.2796 127.563 22.9938C127.082 22.708 126.387 22.6063 125.478 22.6886L122.946 22.9388L123.414 27.2575L125.946 27.0073Z" fill="#FFD566" />
    <path d="M140.514 15.2645L143.511 15.4034L143.12 23.8423L150.583 15.7311L153.316 15.8578L152.723 28.66L149.726 28.5211L150.117 20.0822L142.678 28.1945L139.921 28.0667L140.514 15.2645ZM146.793 14.0419C145.499 13.9819 144.521 13.6403 143.862 13.017C143.218 12.3786 142.916 11.4836 142.953 10.3321L144.943 10.4243C144.932 11.0004 145.087 11.4641 145.407 11.8153C145.743 12.1672 146.223 12.3576 146.846 12.3865C147.453 12.4147 147.941 12.2691 148.308 11.9497C148.691 11.6311 148.904 11.1845 148.946 10.6098L150.984 10.7043C150.915 11.8543 150.523 12.7171 149.807 13.2926C149.092 13.8521 148.088 14.1018 146.793 14.0419Z" fill="#FFD566" />
    <path d="M176.216 20.2602L173.241 32.7262L170.346 32.0354L172.731 22.044L166.591 20.5789L164.207 30.5704L161.289 29.8741L164.263 17.4081L176.216 20.2602Z" fill="#FFD566" />
    <path d="M187.637 24.1842C188.799 24.6401 189.735 25.2995 190.445 26.1625C191.169 27.0312 191.611 28.0296 191.77 29.1577C191.929 30.2857 191.772 31.4529 191.298 32.6593C190.825 33.8657 190.143 34.8358 189.254 35.5696C188.37 36.2885 187.367 36.7199 186.245 36.8639C185.138 37.0138 184.003 36.8608 182.841 36.4049C181.233 35.7736 180.17 34.7377 179.652 33.2971L177.382 39.0835L174.589 37.9875L180.972 21.7231L183.63 22.7664L183.017 24.3303C183.7 23.9455 184.433 23.7431 185.214 23.7232C186.01 23.709 186.818 23.8627 187.637 24.1842ZM183.467 33.8916C184.495 34.2949 185.47 34.2826 186.395 33.8546C187.334 33.4325 188.023 32.6629 188.461 31.5459C188.899 30.4288 188.918 29.3962 188.516 28.448C188.13 27.5057 187.423 26.8329 186.395 26.4296C185.725 26.1666 185.06 26.0863 184.401 26.1886C183.748 26.2761 183.154 26.5414 182.619 26.9847C182.085 27.4279 181.671 28.0219 181.379 28.7666C181.086 29.5113 180.986 30.228 181.076 30.9167C181.167 31.6055 181.419 32.2114 181.833 32.7346C182.252 33.2429 182.797 33.6286 183.467 33.8916Z" fill="#FFD566" />
    <path d="M204.215 39.8072C204.114 39.9889 203.956 40.2398 203.741 40.5598L194.954 35.6701C194.649 36.5806 194.682 37.4594 195.053 38.3066C195.445 39.1477 196.124 39.8366 197.089 40.3734C198.319 41.058 199.558 41.2166 200.806 40.8491L201.313 43.2459C200.475 43.567 199.586 43.6674 198.646 43.5471C197.706 43.4268 196.753 43.0982 195.789 42.5614C194.558 41.8767 193.611 41.0291 192.947 40.0185C192.282 39.0079 191.932 37.9253 191.897 36.7706C191.884 35.6097 192.185 34.477 192.8 33.3725C193.406 32.282 194.196 31.4394 195.167 30.8449C196.161 30.2442 197.234 29.9442 198.387 29.945C199.54 29.9458 200.669 30.2535 201.774 30.8681C202.864 31.4749 203.7 32.2603 204.28 33.2242C204.883 34.1819 205.176 35.2335 205.162 36.3788C205.169 37.5179 204.853 38.6607 204.215 39.8072ZM200.607 32.9653C199.768 32.4985 198.915 32.3534 198.047 32.5299C197.202 32.7003 196.487 33.1629 195.902 33.9178L202.256 37.4537C202.596 36.5806 202.619 35.7329 202.326 34.9106C202.033 34.0883 201.46 33.4398 200.607 32.9653Z" fill="#FFD566" />
    <path d="M216.073 53.0835L212.833 57.4035L210.587 55.7187L212.301 53.4339L204.39 47.5012L202.677 49.786L200.449 48.1156L203.689 43.7956L204.169 44.1556C204.841 44.6196 205.595 44.5348 206.43 43.9011C207.288 43.2643 208.312 42.2323 209.502 40.8051L212.272 37.3923L220.72 43.7283L214.557 51.9459L216.073 53.0835ZM211.561 42.6195C210.627 43.7587 209.811 44.6467 209.113 45.2835C208.416 45.9203 207.747 46.2787 207.107 46.3587L212.157 50.1459L216.793 43.9635L212.857 41.0115L211.561 42.6195Z" fill="#FFD566" />
    <path d="M226.458 57.3855C226.876 58.1036 227.061 58.7968 227.015 59.4651C226.99 60.133 226.733 60.7194 226.242 61.2244C225.696 61.7868 225.022 62.1021 224.22 62.1703C223.428 62.2271 222.583 62.0527 221.683 61.6471C220.783 61.2415 219.909 60.6263 219.059 59.8013C218.348 59.1101 217.732 58.3553 217.21 57.5369C216.701 56.707 216.321 55.8696 216.071 55.0246L218.246 54.0256C218.448 54.7128 218.763 55.3985 219.192 56.0824C219.621 56.7664 220.116 57.3815 220.679 57.9278C221.402 58.6301 222.07 59.0674 222.683 59.2395C223.319 59.4113 223.827 59.3021 224.206 58.9118C224.552 58.5561 224.659 58.1245 224.527 57.6173C224.406 57.1212 224.059 56.5944 223.485 56.037L221.695 54.2979L223.1 52.8518L224.718 54.4237C225.257 54.9477 225.765 55.2628 226.242 55.369C226.73 55.4863 227.136 55.3786 227.46 55.0458C227.783 54.7129 227.856 54.2706 227.678 53.7188C227.5 53.1669 227.09 52.5788 226.447 51.9546C225.529 51.0627 224.342 50.3445 222.886 49.7999L223.873 47.681C225.624 48.2892 227.114 49.1897 228.342 50.3825C229.123 51.1406 229.717 51.9297 230.125 52.7497C230.544 53.5583 230.736 54.3249 230.701 55.0496C230.689 55.7739 230.443 56.3828 229.964 56.8763C229.529 57.3239 229.001 57.5919 228.38 57.6801C227.77 57.7568 227.13 57.6587 226.458 57.3855Z" fill="#FFD566" />
    <path d="M238.794 61.8093C239.981 63.2775 240.532 64.6839 240.446 66.0287C240.383 67.3759 239.643 68.6229 238.224 69.7698L232.383 74.493L230.602 72.2908L231.815 71.3099C231.149 71.3759 230.481 71.2369 229.812 70.8931C229.165 70.5516 228.54 70.0076 227.937 69.2611C227.333 68.5146 226.929 67.7608 226.725 66.9998C226.534 66.2286 226.536 65.5065 226.733 64.8332C226.952 64.1624 227.347 63.5956 227.92 63.1329C228.815 62.4085 229.797 62.1598 230.866 62.3866C231.956 62.6158 233.08 63.4458 234.237 64.8766L236.319 67.4521L236.469 67.3313C237.165 66.768 237.529 66.1239 237.561 65.3991C237.602 64.6867 237.291 63.9199 236.627 63.0988C236.174 62.5389 235.639 62.0557 235.022 61.6491C234.416 61.2549 233.806 60.997 233.193 60.8752L234.152 58.5876C234.972 58.7882 235.785 59.17 236.59 59.7331C237.395 60.2961 238.13 60.9882 238.794 61.8093ZM230.027 68.3732C230.5 68.9579 231.048 69.3686 231.672 69.6052C232.318 69.8443 232.965 69.8559 233.613 69.6401L234.77 68.7045L232.824 66.2971C231.737 64.9534 230.752 64.6386 229.869 65.3529C229.446 65.695 229.246 66.1345 229.269 66.6717C229.292 67.2088 229.544 67.776 230.027 68.3732Z" fill="#FFD566" />
    <path d="M241.132 78.4727L239.896 76.4994L235.543 79.2246L233.951 76.6818L244.814 69.8815L246.406 72.4243L242.012 75.175L243.285 77.2093L249.691 77.6728L251.398 80.3987L243.699 79.725L240.7 87.4635L238.828 84.4731L241.132 78.4727Z" fill="#FFD566" />
    <path d="M254.964 87.4558C255.764 89.166 255.96 90.6636 255.554 91.9485C255.17 93.2412 254.151 94.2738 252.499 95.0464L245.694 98.2285L244.495 95.6631L245.908 95.0023C245.245 94.9062 244.63 94.6109 244.063 94.1164C243.517 93.6297 243.041 92.9515 242.635 92.0819C242.228 91.2123 242.017 90.3836 242.002 89.5958C242.001 88.8013 242.177 88.1008 242.53 87.4945C242.903 86.8959 243.423 86.4407 244.09 86.1289C245.134 85.6409 246.147 85.6353 247.129 86.112C248.133 86.5965 249.024 87.6721 249.804 89.3389L251.207 92.339L251.38 92.2577C252.192 91.8782 252.7 91.3403 252.905 90.6442C253.116 89.9626 252.998 89.1435 252.55 88.1869C252.245 87.5347 251.842 86.9372 251.341 86.3944C250.847 85.866 250.317 85.4692 249.751 85.2038L251.231 83.2134C251.98 83.6052 252.677 84.1711 253.323 84.911C253.97 85.6509 254.516 86.4992 254.964 87.4558ZM244.877 91.722C245.196 92.4032 245.629 92.9335 246.178 93.313C246.747 93.7001 247.373 93.8668 248.054 93.8132L249.402 93.1828L248.091 90.3783C247.359 88.813 246.478 88.271 245.449 88.7522C244.956 88.9826 244.657 89.3613 244.55 89.8881C244.443 90.415 244.552 91.0263 244.877 91.722Z" fill="#FFD566" />
    <path d="M255.651 106.601C255.688 107.431 255.531 108.131 255.18 108.702C254.848 109.282 254.348 109.682 253.679 109.902C252.935 110.147 252.191 110.113 251.448 109.802C250.721 109.485 250.053 108.938 249.444 108.162C248.835 107.385 248.346 106.434 247.976 105.309C247.666 104.367 247.47 103.412 247.388 102.446C247.322 101.474 247.373 100.556 247.544 99.6914L249.934 99.8152C249.795 100.518 249.756 101.272 249.819 102.076C249.881 102.881 250.035 103.656 250.279 104.401C250.594 105.358 250.983 106.056 251.447 106.493C251.931 106.94 252.431 107.079 252.948 106.909C253.419 106.754 253.714 106.421 253.833 105.911C253.956 105.415 253.893 104.788 253.643 104.028L252.864 101.656L254.779 101.027L255.483 103.17C255.718 103.884 256.022 104.399 256.395 104.715C256.773 105.045 257.183 105.138 257.624 104.993C258.064 104.848 258.334 104.49 258.433 103.919C258.531 103.347 258.44 102.636 258.161 101.785C257.761 100.569 257.042 99.3818 256.005 98.2239L257.863 96.8048C259.132 98.156 260.034 99.6447 260.569 101.271C260.908 102.305 261.069 103.279 261.05 104.195C261.046 105.106 260.861 105.874 260.494 106.5C260.147 107.136 259.647 107.562 258.993 107.776C258.401 107.971 257.809 107.964 257.217 107.754C256.642 107.539 256.119 107.155 255.651 106.601Z" fill="#FFD566" />
</svg>