<svg width="237" height="237" viewBox="0 0 237 237" fill="none" xmlns="http://www.w3.org/2000/svg">
<style>
    svg {
        animation: rotate 10s linear infinite;
        overflow: hidden;
    }

    @keyframes rotate {
    to {
        transform: rotate(360deg);
    }
</style>
<path d="M226.732 130.114C226.284 130.836 225.616 131.503 224.729 132.116C223.864 132.732 222.697 133.454 221.229 134.282C220.115 134.92 219.296 135.405 218.771 135.737C218.267 136.094 217.955 136.436 217.835 136.761L217.386 137.965L215.951 137.832L216.199 135.162C216.255 134.561 216.667 133.994 217.434 133.459C218.224 132.926 219.397 132.261 220.952 131.463C222.554 130.647 223.763 129.951 224.579 129.376C225.393 128.823 225.83 128.224 225.89 127.579L226.138 124.909L218.93 124.24L218.378 127.286L216.943 127.152L217.714 118.843L219.149 118.976L219.168 121.67L234.052 123.052L234.795 120.495L236.23 120.629L235.48 128.705L234.045 128.572L233.814 125.622L227.54 125.039L227.218 128.51L233.036 133.998L233.779 131.442L235.214 131.575L234.542 138.817L233.106 138.684L232.826 136.268L226.732 130.114Z" fill="#FFD566" stroke="#FFD566"/>
<path d="M207.116 137.76C207.202 137.46 207.313 137.155 207.449 136.845C207.578 136.557 207.694 136.357 207.795 136.247L210.179 136.932C209.976 137.152 209.754 137.682 209.514 138.519C209.322 139.185 209.289 139.826 209.414 140.443C209.511 141.076 209.885 141.799 210.534 142.613C211.183 143.428 212.212 144.339 213.619 145.348L214.026 143.931L231.933 142.415L232.787 141.022L234.107 141.401L232.062 148.52L230.741 148.141L231.104 145.42L220.275 145.97L214.543 146.137L219.363 149.265L228.318 155.116L229.353 152.973L230.673 153.352L228.896 159.537L227.576 159.157L227.67 157.371C223.194 154.341 219.695 151.953 217.175 150.206C214.67 148.486 213.143 147.408 212.595 146.972C210.921 145.677 209.662 144.595 208.82 143.725C207.956 142.849 207.369 141.937 207.061 140.988C206.752 140.039 206.771 138.963 207.116 137.76Z" fill="#FFD566" stroke="#FFD566"/>
<path d="M218.458 180.81L217.178 180.147L217.811 177.833L204.57 170.969L203.145 173.062L201.866 172.399L205.429 165.525L206.708 166.188L205.773 168.648L219.163 175.589L223.343 167.525L209.953 160.584L208.467 162.796L207.187 162.133L210.781 155.2L212.06 155.863L211.171 158.233L224.413 165.097L226.001 163.127L227.28 163.79L218.458 180.81Z" fill="#FFD566" stroke="#FFD566"/>
<path d="M210.454 191.5L209.346 190.578L210.805 188.041L201.637 180.405L202.423 183.807L203.816 195.698L204.176 195.999L206.236 194.312L207.343 195.234L202.345 201.235L201.238 200.312L202.46 198.059L190.975 188.492L189.095 190.329L187.988 189.407L193.158 183.2L194.265 184.123L192.691 186.432L201.987 194.175L201.012 190.266L199.782 178.86L199.319 178.474L197.697 180.002L196.59 179.08L201.395 173.311L202.502 174.234L201.014 176.44L212.499 186.007L214.537 184.345L215.645 185.268L210.454 191.5Z" fill="#FFD566" stroke="#FFD566"/>
<path d="M184.49 215.922L180.18 210.741L181.6 209.619L185.266 212.958L189.319 209.924L179.923 198.041L176.082 200.694L175.188 199.563L184.574 192.142L185.468 193.273L182 196.399L191.396 208.282L195.283 205.038L192.905 200.68L194.299 199.578L198.372 204.946L184.49 215.922Z" fill="#FFD566" stroke="#FFD566"/>
<path d="M168.918 216.157C164.807 218.326 161.881 217.761 160.14 214.46C159.243 212.761 159.108 211.165 159.735 209.672C160.352 208.209 161.649 206.956 163.625 205.913C164.08 205.673 165.01 205.258 166.416 204.667C167.457 204.245 168.234 203.898 168.747 203.627L172.067 201.875L172.709 203.09L170.079 204.857L177.056 218.077L179.854 217.131L180.542 218.435L172.509 222.674L171.821 221.37L174.714 219.313L172.149 214.451L168.918 216.157ZM167.674 205.974C166.642 206.317 165.603 206.764 164.556 207.317C161.967 208.683 161.298 210.552 162.55 212.923C163.238 214.227 164.079 214.959 165.072 215.117C166.055 215.305 167.278 215.013 168.741 214.241L171.319 212.88L167.674 205.974Z" fill="#FFD566" stroke="#FFD566"/>
<path d="M141.34 224.798C140.515 224.595 139.674 224.168 138.816 223.514C137.962 222.883 136.914 221.998 135.671 220.859C134.72 219.998 134.004 219.369 133.525 218.974C133.029 218.605 132.608 218.414 132.262 218.401L130.978 218.348L130.66 216.943L133.275 216.35C133.863 216.217 134.53 216.432 135.277 216.996C136.028 217.582 137.024 218.49 138.265 219.721C139.538 220.991 140.574 221.924 141.374 222.522C142.152 223.125 142.857 223.355 143.489 223.211L146.104 222.619L144.505 215.558L141.438 215.978L141.12 214.573L149.259 212.728L149.577 214.134L147.022 214.988L150.325 229.567L152.986 229.479L153.304 230.885L145.394 232.677L145.075 231.272L147.808 230.137L146.415 223.992L143.016 224.762L139.603 231.996L142.264 231.909L142.582 233.314L135.489 234.921L135.171 233.516L137.38 232.5L141.34 224.798Z" fill="#FFD566" stroke="#FFD566"/>
<path d="M127.933 208.498C128.246 208.485 128.571 208.495 128.907 208.527C129.222 208.56 129.447 208.607 129.583 208.669L129.679 211.147C129.406 211.023 128.834 210.978 127.963 211.012C127.271 211.039 126.652 211.208 126.105 211.52C125.534 211.81 124.964 212.391 124.394 213.263C123.824 214.135 123.28 215.397 122.763 217.049L124.236 216.992L131.281 233.524L132.872 233.899L132.925 235.272L125.523 235.558L125.47 234.185L128.168 233.678L124.255 223.565L122.303 218.174L120.841 223.731L118.087 234.067L120.447 234.379L120.5 235.752L114.069 236L114.016 234.627L115.742 234.158C117.219 228.958 118.392 224.887 119.262 221.947C120.111 219.03 120.657 217.242 120.9 216.584C121.606 214.589 122.24 213.055 122.802 211.983C123.363 210.888 124.046 210.045 124.851 209.455C125.656 208.865 126.683 208.546 127.933 208.498Z" fill="#FFD566" stroke="#FFD566"/>
<path d="M90.2905 232.669L90.5225 231.247L92.919 231.128L95.32 216.408L92.8876 215.706L93.1196 214.283L100.761 215.53L100.529 216.952L97.9002 216.829L95.4722 231.715L104.437 233.177L106.865 218.291L104.3 217.567L104.532 216.145L112.239 217.402L112.007 218.824L109.478 218.718L107.077 233.438L109.444 234.333L109.212 235.756L90.2905 232.669Z" fill="#FFD566" stroke="#FFD566"/>
<path d="M77.6612 228.379L78.1927 227.04L81.0573 227.635L85.4577 216.545L82.469 218.352L71.6038 223.38L71.4308 223.816L73.6754 225.247L73.1439 226.587L65.885 223.707L66.4165 222.367L68.9385 222.827L74.4513 208.933L72.1202 207.719L72.6517 206.38L80.1597 209.358L79.6282 210.698L76.9436 209.921L72.4814 221.168L75.8923 219.024L86.3476 214.302L86.5701 213.741L84.6128 212.676L85.1443 211.336L92.1228 214.105L91.5913 215.445L89.0313 214.717L83.5185 228.612L85.7319 230.031L85.2004 231.371L77.6612 228.379Z" fill="#FFD566" stroke="#FFD566"/>
<path d="M46.411 211.226L50.0122 205.53L51.5174 206.535L49.4694 211.052L53.6041 213.973L62.0157 201.374L58.3086 198.536L59.1088 197.338L69.0602 203.981L68.2599 205.18L64.2178 202.844L55.8062 215.443L60.0898 218.142L63.5037 214.538L64.981 215.524L61.129 221.052L46.411 211.226Z" fill="#FFD566" stroke="#FFD566"/>
<path d="M41.4183 196.514C38.0845 193.275 37.7176 190.318 40.3175 187.641C41.6564 186.263 43.1327 185.641 44.7464 185.776C46.3285 185.911 47.9209 186.757 49.5237 188.313C49.8923 188.671 50.5749 189.428 51.5714 190.583C52.2949 191.441 52.865 192.073 53.2818 192.478L55.9744 195.093L55.0169 196.079L52.5235 194.124L42.1082 204.847L43.8729 207.215L42.8454 208.273L36.3301 201.944L37.3577 200.886L40.2089 203.002L44.0388 199.059L41.4183 196.514ZM50.7176 192.183C50.0729 191.308 49.3257 190.457 48.4763 189.632C46.3767 187.593 44.3927 187.535 42.5245 189.458C41.497 190.516 41.0616 191.541 41.2182 192.535C41.3433 193.528 41.9988 194.601 43.1849 195.753L45.2765 197.785L50.7176 192.183Z" fill="#FFD566" stroke="#FFD566"/>
<path d="M24.6786 173.044C24.6131 172.197 24.7563 171.264 25.1083 170.245C25.4411 169.237 25.954 167.964 26.6467 166.427C27.1673 165.254 27.5404 164.379 27.7662 163.8C27.9614 163.213 28.0109 162.754 27.915 162.42L27.5637 161.185L28.7991 160.442L30.1798 162.741C30.4905 163.258 30.4947 163.959 30.1924 164.845C29.871 165.742 29.3198 166.972 28.5389 168.536C27.7312 170.142 27.1686 171.418 26.851 172.365C26.522 173.292 26.5243 174.034 26.8579 174.589L28.2387 176.888L34.4445 173.16L33.0866 170.379L34.322 169.636L38.6195 176.79L37.3841 177.533L35.7735 175.372L22.9595 183.07L23.8747 185.57L22.6393 186.312L18.4626 179.359L19.6981 178.617L21.6306 180.857L27.032 177.613L25.237 174.625L17.2985 173.646L18.2138 176.146L16.9783 176.888L13.2331 170.653L14.4686 169.911L16.1249 171.692L24.6786 173.044Z" fill="#FFD566" stroke="#FFD566"/>
<path d="M35.9539 155.236C36.0616 155.53 36.1522 155.842 36.2256 156.172C36.2914 156.481 36.3158 156.71 36.2991 156.859L33.9705 157.713C34.004 157.415 33.8708 156.857 33.5708 156.039C33.3323 155.389 32.9806 154.851 32.5156 154.427C32.0638 153.974 31.3355 153.61 30.3306 153.336C29.3258 153.062 27.9576 152.933 26.2262 152.949L26.7339 154.333L13.1726 166.125L13.3058 167.753L12.0156 168.227L9.46561 161.272L10.7558 160.799L12.068 163.21L20.4855 156.375L25.0147 152.858L19.2771 153.177L8.5949 153.738L9.02499 156.079L7.73482 156.552L5.51942 150.51L6.80959 150.037L7.7872 151.535C13.1891 151.339 17.4229 151.203 20.4886 151.126C23.5256 151.036 25.3944 151.005 26.0951 151.034C28.2104 151.091 29.8649 151.222 31.0586 151.427C32.2732 151.624 33.2851 152.015 34.0942 152.598C34.9032 153.182 35.5232 154.062 35.9539 155.236Z" fill="#FFD566" stroke="#FFD566"/>
<path d="M1.41243 127.663L2.83571 127.437L3.70101 129.674L18.4303 127.33L18.3331 124.8L19.7563 124.573L20.9734 132.219L19.5501 132.446L18.8413 129.912L3.94647 132.283L5.37429 141.253L20.2691 138.882L20.1508 136.219L21.574 135.993L22.8017 143.705L21.3784 143.932L20.6853 141.497L5.95602 143.841L5.84941 146.369L4.42613 146.596L1.41243 127.663Z" fill="#FFD566" stroke="#FFD566"/>
<path d="M1.50452 113.873L2.94298 113.962L3.26694 116.87L15.176 117.606L12.5297 115.327L4.37419 106.562L3.90586 106.533L3.24279 109.111L1.80434 109.022L2.28611 101.228L3.72457 101.317L4.07128 103.857L18.9911 104.779L19.42 102.186L20.8584 102.275L20.3601 110.337L18.9216 110.248L18.8256 107.455L6.74931 106.709L9.84739 109.284L17.5846 117.755L18.1867 117.792L18.5908 115.601L20.0293 115.69L19.5661 123.183L18.1276 123.094L18.0234 120.435L3.10359 119.513L2.44259 122.057L1.00414 121.968L1.50452 113.873Z" fill="#FFD566" stroke="#FFD566"/>
<path d="M8.04245 78.7068L14.5762 80.3567L14.0896 82.0999L9.16012 81.559L7.67024 86.3976L22.2617 90.4708L23.8049 86.0647L25.193 86.4522L21.9759 97.9769L20.5878 97.5894L21.5498 93.0211L6.95833 88.9479L5.72671 93.8585L10.2146 95.9812L9.73699 97.6922L3.28434 95.7517L8.04245 78.7068Z" fill="#FFD566" stroke="#FFD566"/>
<path d="M20.4407 69.4123C22.4873 65.2396 25.1857 63.9748 28.5359 65.6179C30.2612 66.4641 31.3097 67.6752 31.6815 69.2512C32.0431 70.7974 31.732 72.5735 30.7481 74.5796C30.5218 75.041 30.0139 75.9243 29.2245 77.2294C28.6322 78.1833 28.2082 78.921 27.9524 79.4426L26.2994 82.8129L25.0656 82.2078L26.152 79.2316L12.731 72.6492L11.0257 75.0606L9.7017 74.4112L13.7013 66.2563L15.0253 66.9057L13.897 70.2719L18.832 72.6924L20.4407 69.4123ZM27.4383 76.9134C28.0711 76.0291 28.6482 75.0554 29.1697 73.9921C30.4586 71.3641 29.8994 69.4598 27.492 68.2791C26.168 67.6297 25.0581 67.5333 24.1622 67.9898C23.2561 68.4165 22.439 69.372 21.7109 70.8566L20.4269 73.4746L27.4383 76.9134Z" fill="#FFD566" stroke="#FFD566"/>
<path d="M37.5478 46.2152C38.3332 45.8916 39.265 45.7401 40.3434 45.7605C41.4049 45.7663 42.7735 45.8617 44.4492 46.0467C45.7255 46.1801 46.6737 46.265 47.2938 46.3013C47.9118 46.3061 48.3646 46.2114 48.6521 46.0173L49.7191 45.3021L50.8061 46.2484L49.0455 48.2707C48.6493 48.7257 47.9836 48.946 47.0481 48.9315C46.0959 48.9023 44.7555 48.7575 43.027 48.4969C41.2502 48.2239 39.8625 48.0823 38.8641 48.0722C37.8803 48.0452 37.1757 48.276 36.7502 48.7648L34.9896 50.787L40.4497 55.5407L42.6766 53.3912L43.7636 54.3375L38.2837 60.6318L37.1967 59.6855L38.7551 57.4872L27.4809 47.6717L25.3851 49.3133L24.2982 48.3669L29.6241 42.2496L30.711 43.1959L29.1755 45.7252L33.9279 49.8627L36.2167 47.2337L34.6995 39.3804L32.6037 41.022L31.5167 40.0756L36.2924 34.5902L37.3794 35.5365L36.196 37.6614L37.5478 46.2152Z" fill="#FFD566" stroke="#FFD566"/>
<path d="M57.8396 51.4969C57.5942 51.691 57.3262 51.8744 57.0356 52.0472C56.7625 52.2062 56.5525 52.3009 56.4058 52.3315L54.8675 50.3859C55.161 50.3248 55.6495 50.024 56.3331 49.4835C56.8765 49.0539 57.2772 48.552 57.5352 47.9777C57.8246 47.407 57.9426 46.6016 57.8892 45.5614C57.8359 44.5212 57.5312 43.1811 56.9753 41.5413L55.8185 42.456L40.3824 33.2545L38.8765 33.8897L38.0242 32.8118L43.8345 28.2178L44.6868 29.2957L42.8067 31.295L51.9282 37.1574L56.6837 40.3619L54.5891 35.0108L50.7203 25.038L48.6305 26.1776L47.7782 25.0996L52.8261 21.1085L53.6784 22.1864L52.5607 23.5828C54.4335 28.6535 55.8851 32.633 56.9155 35.5214C57.9495 38.3783 58.5623 40.1441 58.7539 40.8187C59.36 42.8461 59.752 44.4588 59.9301 45.6568C60.1221 46.8723 60.067 47.9555 59.765 48.9064C59.4629 49.8574 58.8211 50.7209 57.8396 51.4969Z" fill="#FFD566" stroke="#FFD566"/>
<path d="M73.2985 9.9859L73.957 11.2679L72.0998 12.787L78.9145 26.0539L81.2883 25.1737L81.9468 26.4556L75.0599 29.9931L74.4015 28.7112L76.5891 27.2484L69.6978 13.8324L61.6184 17.9825L68.5097 31.3984L71.0028 30.457L71.6612 31.7389L64.7148 35.3071L64.0563 34.0251L66.1544 32.6082L59.3398 19.3414L56.9039 20.0274L56.2454 18.7454L73.2985 9.9859Z" fill="#FFD566" stroke="#FFD566"/>
<path d="M86.5145 5.69781L86.8756 7.09305L84.2111 8.30195L87.2007 19.8531L88.5478 16.631L94.3549 6.16135L94.2373 5.70709L91.5805 5.8754L91.2194 4.48016L98.7796 2.52353L99.1407 3.91876L96.8331 5.03528L100.578 19.5067L103.176 19.1113L103.538 20.5065L95.7178 22.5304L95.3567 21.1351L97.9826 20.1785L94.9511 8.4651L93.4619 12.2087L87.8053 22.1893L87.9565 22.7734L90.1652 22.4787L90.5262 23.874L83.2581 25.755L82.897 24.3598L85.3931 23.4368L81.6478 8.96536L79.0234 9.12526L78.6623 7.73003L86.5145 5.69781Z" fill="#FFD566" stroke="#FFD566"/>
<path d="M121.423 1.00784L121.902 7.72964L120.094 7.81342L119.064 2.96253L114.003 3.06288L114.704 18.196L119.372 18.2817L119.438 19.7213L107.486 20.2752L107.419 18.8356L112.059 18.3186L111.358 3.18545L106.308 3.55365L105.698 8.48057L103.923 8.5628L103.745 1.82705L121.423 1.00784Z" fill="#FFD566" stroke="#FFD566"/>
<path d="M134.721 9.86369C139.324 10.5061 141.368 12.6752 140.852 16.3708C140.586 18.274 139.763 19.6481 138.381 20.4931C137.025 21.319 135.241 21.5776 133.028 21.2687C132.519 21.1977 131.521 20.9907 130.035 20.6479C128.944 20.3828 128.11 20.2101 127.535 20.1298L123.817 19.6109L124.007 18.25L127.174 18.3535L129.24 3.54878L126.417 2.68098L126.621 1.22042L135.617 2.47598L135.413 3.93653L131.863 3.91479L131.103 9.35869L134.721 9.86369ZM129.778 18.8523C130.815 19.1776 131.92 19.4221 133.093 19.5858C135.992 19.9904 137.627 18.865 137.998 16.2094C138.202 14.7488 137.947 13.6642 137.234 12.9555C136.546 12.2278 135.383 11.7496 133.745 11.5211L130.857 11.118L129.778 18.8523Z" fill="#FFD566" stroke="#FFD566"/>
<path d="M161.98 18.8058C162.532 19.4516 162.966 20.2901 163.281 21.3214C163.606 22.332 163.941 23.6625 164.286 25.3127C164.556 26.5671 164.77 27.4947 164.929 28.0954C165.116 28.6842 165.347 29.0851 165.621 29.298L166.633 30.0898L166.071 31.4171L163.602 30.3726C163.046 30.1376 162.63 29.5733 162.353 28.6798C162.084 27.7656 161.805 26.4467 161.515 24.7229C161.222 22.9492 160.925 21.5863 160.624 20.6342C160.344 19.6908 159.906 19.0929 159.309 18.8405L156.839 17.796L154.019 24.4636L156.755 25.9117L156.193 27.2391L148.507 23.9881L149.068 22.6607L151.642 23.4583L157.465 9.69085L155.253 8.20942L155.815 6.88207L163.285 10.0417L162.724 11.3691L159.842 10.6962L157.388 16.4995L160.598 17.8573L167.59 13.9733L165.378 12.4919L165.94 11.1645L172.638 13.9978L172.077 15.3251L169.689 14.8612L161.98 18.8058Z" fill="#FFD566" stroke="#FFD566"/>
<path d="M163.548 39.8775C163.288 39.7038 163.03 39.5053 162.777 39.2821C162.541 39.0712 162.386 38.9007 162.312 38.7705L163.689 36.7077C163.838 36.9681 164.274 37.3402 164.999 37.8241C165.575 38.2087 166.176 38.4353 166.802 38.5039C167.434 38.6034 168.237 38.4676 169.21 38.0964C170.183 37.7252 171.364 37.0226 172.753 35.9886L171.527 35.1698L175.526 17.6499L174.458 16.4129L175.221 15.27L181.381 19.3828L180.618 20.5257L178.137 19.3528L175.369 29.8365L173.785 35.3479L178.231 31.7069L186.527 24.9543L184.799 23.3171L185.562 22.1743L190.914 25.7473L190.151 26.8902L188.479 26.257C184.231 29.6007 180.892 32.2075 178.462 34.0774C176.062 35.9412 174.571 37.0681 173.988 37.4582C172.246 38.6593 170.833 39.529 169.748 40.0675C168.651 40.6245 167.603 40.9058 166.605 40.9113C165.608 40.9169 164.588 40.5723 163.548 39.8775Z" fill="#FFD566" stroke="#FFD566"/>
<path d="M208.255 42.2749L207.236 43.294L205.221 41.9905L194.675 52.5369L196.239 54.5276L195.22 55.5467L189.746 50.0721L190.765 49.053L192.826 50.6883L203.491 40.0235L197.069 33.6009L186.404 44.2657L188.063 46.3513L187.044 47.3703L181.522 41.8483L182.541 40.8293L184.532 42.3934L195.078 31.8471L193.68 29.7379L194.699 28.7188L208.255 42.2749Z" fill="#FFD566" stroke="#FFD566"/>
<path d="M215.923 52.9329L214.71 53.711L212.731 51.5563L202.688 57.9984L206.169 58.2737L217.928 60.5269L218.323 60.2736L217.334 57.8017L218.547 57.0236L222.764 63.5968L221.551 64.3749L219.77 62.5305L207.188 70.6012L208.374 72.9465L207.161 73.7246L202.799 66.9257L204.013 66.1475L205.74 68.3443L215.925 61.8117L211.903 61.564L200.656 59.3013L200.149 59.627L201.117 61.6337L199.904 62.4118L195.851 56.0925L197.064 55.3144L198.719 57.3983L211.301 49.3276L210.331 46.8839L211.544 46.1057L215.923 52.9329Z" fill="#FFD566" stroke="#FFD566"/>
<path d="M231.316 84.7985L225.077 87.3454L224.435 85.6533L228.725 83.165L227.054 78.3858L212.89 83.761L214.261 88.2237L212.914 88.7351L208.669 77.5483L210.016 77.0369L211.951 81.2855L226.115 75.9103L224.194 71.2262L219.321 72.179L218.691 70.5183L225.037 68.2533L231.316 84.7985Z" fill="#FFD566" stroke="#FFD566"/>
<path d="M226.925 99.9729C227.743 104.548 226.315 107.164 222.642 107.821C220.751 108.159 219.189 107.803 217.957 106.752C216.751 105.72 215.951 104.104 215.557 101.904C215.467 101.398 215.354 100.386 215.218 98.8663C215.132 97.7469 215.037 96.9012 214.935 96.3294L214.274 92.6342L215.627 92.3922L216.511 95.4345L231.226 92.8025L231.174 89.8495L232.626 89.5898L234.225 98.5308L232.774 98.7905L231.692 95.4089L226.281 96.3767L226.925 99.9729ZM216.845 98.0645C216.858 99.1518 216.969 100.278 217.178 101.444C217.693 104.325 219.27 105.53 221.91 105.058C223.361 104.798 224.313 104.219 224.766 103.321C225.244 102.441 225.337 101.188 225.046 99.5599L224.533 96.6895L216.845 98.0645Z" fill="#FFD566" stroke="#FFD566"/>
</svg>
